<?xml version="1.0" encoding="utf-8"?>
<!-- Generator: Adobe Illustrator 15.1.0, SVG Export Plug-In . SVG Version: 6.00 Build 0)  -->
<!DOCTYPE svg PUBLIC "-//W3C//DTD SVG 1.1//EN" "http://www.w3.org/Graphics/SVG/1.1/DTD/svg11.dtd">
<svg version="1.1" id="Layer_1" xmlns="http://www.w3.org/2000/svg" xmlns:xlink="http://www.w3.org/1999/xlink" x="0px" y="0px"
	 width="500px" height="500px" viewBox="0 0 500 500" enable-background="new 0 0 500 500" xml:space="preserve">
<g id="Layer_4">
	<g>
		<path fill="#FFFFFF" d="M283.943,481.585c-1.978,1.912-5.844,3.415-8.594,3.415H47c-2.75,0-5-2.129-5-4.879v-425
			C42,52.371,44.25,50,47,50h345c2.75,0,5,2.371,5,5.121v312.232c0,2.75-1.617,6.532-3.595,8.444L283.943,481.585z"/>
		<path fill="none" stroke="#000000" stroke-width="5" stroke-miterlimit="10" d="M283.943,481.835
			c-1.978,1.912-5.844,3.665-8.594,3.665H47c-2.75,0-5.5-2.629-5.5-5.379v-425c0-2.75,2.75-4.621,5.5-4.621h345
			c2.75,0,4.5,1.871,4.5,4.621v312.232c0,2.75-1.367,6.657-3.345,8.569L283.943,481.835z"/>
	</g>
</g>
<g id="Layer_3">
	<g>
		<path fill="#FFFFFF" d="M309.444,467.585c-1.979,1.912-5.845,3.415-8.595,3.415H72.5c-2.75,0-5.5-2.129-5.5-4.879v-425
			C67,38.371,69.75,36,72.5,36h345c2.75,0,4.5,2.371,4.5,5.121v312.232c0,2.75-1.367,6.532-3.345,8.444L309.444,467.585z"/>
		<path fill="none" stroke="#000000" stroke-width="5" stroke-miterlimit="10" d="M309.444,467.835
			c-1.979,1.912-5.845,3.665-8.595,3.665H72.5c-2.75,0-5-2.629-5-5.379v-425c0-2.75,2.25-4.621,5-4.621h345c2.75,0,5,1.871,5,4.621
			v312.232c0,2.75-1.617,6.657-3.595,8.569L309.444,467.835z"/>
	</g>
</g>
<g id="Layer_2">
	<g>
		<path fill="#FFFFFF" d="M334.944,453.585c-1.979,1.912-5.846,3.415-8.596,3.415H98c-2.75,0-5-2.129-5-4.879v-425
			C93,24.371,95.25,22,98,22h345c2.75,0,5,2.371,5,5.121v312.232c0,2.75-1.617,6.532-3.595,8.444L334.944,453.585z"/>
		<path fill="none" stroke="#000000" stroke-width="5" stroke-miterlimit="10" d="M334.944,453.835
			c-1.979,1.912-5.846,3.665-8.596,3.665H98c-2.75,0-5.5-2.629-5.5-5.379v-425c0-2.75,2.75-4.621,5.5-4.621h345
			c2.75,0,4.5,1.871,4.5,4.621v312.232c0,2.75-1.367,6.657-3.345,8.569L334.944,453.835z"/>
	</g>
	<g>
		<path fill="none" stroke="#000000" stroke-width="5" stroke-miterlimit="10" d="M329.5,455v-99.5c0-5.5,4.5-10,10-10H447"/>
	</g>
</g>
<g id="Layer_1_1_">
	<rect x="135.978" y="75.929" width="39.728" height="40.251"/>
	<rect x="144.922" y="84.874" fill="#FFFFFF" width="21.837" height="22.362"/>
	<rect x="151.375" y="91.481" width="8.931" height="9.146"/>
	<rect x="217.375" y="146.891" width="39.727" height="40.252"/>
	<rect x="226.32" y="155.835" fill="#FFFFFF" width="21.838" height="22.363"/>
	<rect x="232.773" y="162.444" width="8.93" height="9.145"/>
	<rect x="193.567" y="75.929" width="8.931" height="9.145"/>
	<rect x="193.567" y="85.074" width="8.931" height="9.146"/>
	<rect x="184.636" y="85.074" width="8.931" height="9.146"/>
	<rect x="184.636" y="94.219" width="8.931" height="9.146"/>
	<rect x="193.567" y="94.219" width="8.931" height="9.146"/>
	<rect x="193.567" y="103.365" width="8.931" height="9.145"/>
	<rect x="220.358" y="75.929" width="8.931" height="9.145"/>
	<rect x="220.358" y="85.074" width="8.931" height="9.146"/>
	<rect x="211.428" y="85.074" width="8.932" height="9.146"/>
	<rect x="202.498" y="85.074" width="8.931" height="9.146"/>
	<rect x="202.498" y="75.929" width="8.931" height="9.145"/>
	<rect x="220.358" y="103.365" width="8.931" height="9.145"/>
	<rect x="202.498" y="103.365" width="8.931" height="9.145"/>
	<rect x="193.567" y="112.51" width="8.931" height="9.146"/>
	<rect x="184.636" y="121.656" width="8.931" height="9.145"/>
	<rect x="175.705" y="121.656" width="8.931" height="9.145"/>
	<rect x="184.636" y="130.8" width="8.931" height="9.146"/>
	<rect x="193.567" y="130.8" width="8.931" height="9.146"/>
	<rect x="175.705" y="130.8" width="8.931" height="9.146"/>
	<rect x="220.358" y="112.51" width="8.931" height="9.146"/>
	<rect x="220.358" y="121.656" width="8.931" height="9.145"/>
	<rect x="211.428" y="121.656" width="8.932" height="9.145"/>
	<rect x="202.498" y="121.656" width="8.931" height="9.145"/>
	<rect x="202.498" y="112.51" width="8.931" height="9.146"/>
	<rect x="220.358" y="130.8" width="8.931" height="9.146"/>
	<rect x="202.498" y="130.8" width="8.931" height="9.146"/>
	<rect x="175.705" y="149.091" width="8.931" height="9.145"/>
	<rect x="166.774" y="149.091" width="8.931" height="9.145"/>
	<rect x="157.843" y="149.091" width="8.931" height="9.145"/>
	<rect x="157.843" y="139.946" width="8.931" height="9.145"/>
	<rect x="175.705" y="167.381" width="8.931" height="9.145"/>
	<rect x="157.843" y="167.381" width="8.931" height="9.145"/>
	<rect x="193.567" y="149.091" width="8.931" height="9.145"/>
	<rect x="193.567" y="158.236" width="8.931" height="9.145"/>
	<rect x="193.567" y="167.381" width="8.931" height="9.145"/>
	<rect x="184.636" y="167.381" width="8.931" height="9.145"/>
	<rect x="166.774" y="176.526" width="8.931" height="9.146"/>
	<rect x="175.705" y="176.526" width="8.931" height="9.146"/>
	<rect x="166.774" y="185.672" width="8.931" height="9.145"/>
	<rect x="157.843" y="185.672" width="8.931" height="9.145"/>
	<rect x="193.567" y="176.526" width="8.931" height="9.146"/>
	<rect x="202.498" y="185.672" width="8.931" height="9.145"/>
	<rect x="238.221" y="75.929" width="8.932" height="9.145"/>
	<rect x="247.152" y="75.929" width="8.93" height="9.145"/>
	<rect x="247.152" y="85.074" width="8.93" height="9.146"/>
	<rect x="238.221" y="94.219" width="8.932" height="9.146"/>
	<rect x="247.152" y="94.219" width="8.93" height="9.146"/>
	<rect x="238.221" y="103.365" width="8.932" height="9.145"/>
	<rect x="247.152" y="112.51" width="8.93" height="9.146"/>
	<rect x="247.152" y="121.656" width="8.93" height="9.145"/>
	<rect x="238.221" y="121.656" width="8.932" height="9.145"/>
	<rect x="229.29" y="112.51" width="8.931" height="9.146"/>
	<rect x="247.152" y="130.8" width="8.93" height="9.146"/>
	<rect x="144.922" y="126.228" width="8.931" height="9.145"/>
	<rect x="135.991" y="135.373" width="8.932" height="9.145"/>
	<rect x="135.991" y="126.228" width="8.932" height="9.145"/>
	<rect x="144.922" y="144.517" width="8.931" height="9.145"/>
	<rect x="135.991" y="153.662" width="8.932" height="9.146"/>
</g>
<g id="Layer_1_2_">
	<rect x="284.439" y="75.929" width="39.727" height="40.251"/>
	<rect x="293.385" y="84.874" fill="#FFFFFF" width="21.836" height="22.362"/>
	<rect x="299.836" y="91.481" width="8.932" height="9.146"/>
	<rect x="365.836" y="146.891" width="39.729" height="40.252"/>
	<rect x="374.781" y="155.836" fill="#FFFFFF" width="21.838" height="22.362"/>
	<rect x="381.236" y="162.444" width="8.93" height="9.146"/>
	<rect x="342.029" y="75.929" width="8.932" height="9.145"/>
	<rect x="342.029" y="85.074" width="8.932" height="9.146"/>
	<rect x="333.098" y="85.074" width="8.932" height="9.146"/>
	<rect x="333.098" y="94.219" width="8.932" height="9.146"/>
	<rect x="342.029" y="94.219" width="8.932" height="9.146"/>
	<rect x="342.029" y="103.365" width="8.932" height="9.145"/>
	<rect x="368.82" y="75.929" width="8.932" height="9.145"/>
	<rect x="368.82" y="85.074" width="8.932" height="9.146"/>
	<rect x="359.891" y="85.074" width="8.932" height="9.146"/>
	<rect x="350.961" y="85.074" width="8.93" height="9.146"/>
	<rect x="350.961" y="75.929" width="8.93" height="9.145"/>
	<rect x="368.82" y="103.365" width="8.932" height="9.145"/>
	<rect x="350.961" y="103.365" width="8.93" height="9.145"/>
	<rect x="342.029" y="112.51" width="8.932" height="9.146"/>
	<rect x="333.098" y="121.656" width="8.932" height="9.145"/>
	<rect x="324.166" y="121.656" width="8.932" height="9.145"/>
	<rect x="333.098" y="130.8" width="8.932" height="9.145"/>
	<rect x="342.029" y="130.8" width="8.932" height="9.145"/>
	<rect x="324.166" y="130.8" width="8.932" height="9.145"/>
	<rect x="368.82" y="112.51" width="8.932" height="9.146"/>
	<rect x="368.82" y="121.656" width="8.932" height="9.145"/>
	<rect x="359.891" y="121.656" width="8.932" height="9.145"/>
	<rect x="350.961" y="121.656" width="8.93" height="9.145"/>
	<rect x="350.961" y="112.51" width="8.93" height="9.146"/>
	<rect x="368.82" y="130.8" width="8.932" height="9.145"/>
	<rect x="350.961" y="130.8" width="8.93" height="9.145"/>
	<rect x="324.166" y="149.091" width="8.932" height="9.145"/>
	<rect x="315.236" y="149.091" width="8.93" height="9.145"/>
	<rect x="306.305" y="149.091" width="8.932" height="9.145"/>
	<rect x="306.305" y="139.946" width="8.932" height="9.146"/>
	<rect x="324.166" y="167.381" width="8.932" height="9.145"/>
	<rect x="306.305" y="167.381" width="8.932" height="9.145"/>
	<rect x="342.029" y="149.091" width="8.932" height="9.145"/>
	<rect x="342.029" y="158.236" width="8.932" height="9.145"/>
	<rect x="342.029" y="167.381" width="8.932" height="9.145"/>
	<rect x="333.098" y="167.381" width="8.932" height="9.145"/>
	<rect x="315.236" y="176.526" width="8.93" height="9.146"/>
	<rect x="324.166" y="176.526" width="8.932" height="9.146"/>
	<rect x="315.236" y="185.672" width="8.93" height="9.145"/>
	<rect x="306.305" y="185.672" width="8.932" height="9.145"/>
	<rect x="342.029" y="176.526" width="8.932" height="9.146"/>
	<rect x="350.961" y="185.672" width="8.93" height="9.145"/>
	<rect x="386.682" y="75.929" width="8.932" height="9.145"/>
	<rect x="395.613" y="75.929" width="8.932" height="9.145"/>
	<rect x="395.613" y="85.074" width="8.932" height="9.146"/>
	<rect x="386.682" y="94.219" width="8.932" height="9.146"/>
	<rect x="395.613" y="94.219" width="8.932" height="9.146"/>
	<rect x="386.682" y="103.365" width="8.932" height="9.145"/>
	<rect x="395.613" y="112.51" width="8.932" height="9.146"/>
	<rect x="395.613" y="121.656" width="8.932" height="9.145"/>
	<rect x="386.682" y="121.656" width="8.932" height="9.145"/>
	<rect x="377.752" y="112.51" width="8.932" height="9.146"/>
	<rect x="395.613" y="130.8" width="8.932" height="9.145"/>
	<rect x="293.385" y="126.228" width="8.93" height="9.145"/>
	<rect x="284.453" y="135.373" width="8.932" height="9.145"/>
	<rect x="284.453" y="126.228" width="8.932" height="9.145"/>
	<rect x="293.385" y="144.517" width="8.93" height="9.146"/>
	<rect x="284.453" y="153.662" width="8.932" height="9.146"/>
</g>
<g id="Layer_1_4_">
	<rect x="215.731" y="208.105" width="40.252" height="39.729"/>
	<rect x="224.677" y="217.051" fill="#FFFFFF" width="22.362" height="21.837"/>
	<rect x="231.286" y="223.503" width="9.146" height="8.932"/>
	<rect x="144.77" y="289.503" width="40.252" height="39.727"/>
	<rect x="153.714" y="298.448" fill="#FFFFFF" width="22.362" height="21.838"/>
	<rect x="160.322" y="304.901" width="9.146" height="8.93"/>
	<rect x="246.838" y="265.695" width="9.146" height="8.931"/>
	<rect x="237.692" y="265.695" width="9.146" height="8.931"/>
	<rect x="237.692" y="256.764" width="9.146" height="8.932"/>
	<rect x="228.548" y="256.764" width="9.146" height="8.932"/>
	<rect x="228.548" y="265.695" width="9.146" height="8.931"/>
	<rect x="219.402" y="265.695" width="9.146" height="8.931"/>
	<rect x="246.838" y="292.486" width="9.146" height="8.931"/>
	<rect x="237.692" y="292.486" width="9.146" height="8.931"/>
	<rect x="237.692" y="283.556" width="9.146" height="8.932"/>
	<rect x="237.692" y="274.626" width="9.146" height="8.931"/>
	<rect x="246.838" y="274.626" width="9.146" height="8.931"/>
	<rect x="219.402" y="292.486" width="9.146" height="8.931"/>
	<rect x="219.402" y="274.626" width="9.146" height="8.931"/>
	<rect x="210.256" y="265.695" width="9.146" height="8.931"/>
	<rect x="201.111" y="256.764" width="9.145" height="8.932"/>
	<rect x="201.111" y="247.834" width="9.145" height="8.931"/>
	<rect x="191.967" y="256.764" width="9.145" height="8.932"/>
	<rect x="191.967" y="265.695" width="9.145" height="8.931"/>
	<rect x="191.967" y="247.834" width="9.145" height="8.931"/>
	<rect x="210.256" y="292.486" width="9.146" height="8.931"/>
	<rect x="201.111" y="292.486" width="9.145" height="8.931"/>
	<rect x="201.111" y="283.556" width="9.145" height="8.932"/>
	<rect x="201.111" y="274.626" width="9.145" height="8.931"/>
	<rect x="210.256" y="274.626" width="9.146" height="8.931"/>
	<rect x="191.967" y="292.486" width="9.145" height="8.931"/>
	<rect x="191.967" y="274.626" width="9.145" height="8.931"/>
	<rect x="173.677" y="247.834" width="9.145" height="8.931"/>
	<rect x="173.677" y="238.902" width="9.145" height="8.932"/>
	<rect x="173.677" y="229.972" width="9.145" height="8.931"/>
	<rect x="182.821" y="229.972" width="9.146" height="8.931"/>
	<rect x="155.387" y="247.834" width="9.145" height="8.931"/>
	<rect x="155.387" y="229.972" width="9.145" height="8.931"/>
	<rect x="173.677" y="265.695" width="9.145" height="8.931"/>
	<rect x="164.531" y="265.695" width="9.145" height="8.931"/>
	<rect x="155.387" y="265.695" width="9.145" height="8.931"/>
	<rect x="155.387" y="256.764" width="9.145" height="8.932"/>
	<rect x="146.24" y="238.902" width="9.146" height="8.932"/>
	<rect x="146.24" y="247.834" width="9.146" height="8.931"/>
	<rect x="137.096" y="238.902" width="9.145" height="8.932"/>
	<rect x="137.096" y="229.972" width="9.145" height="8.931"/>
	<rect x="146.24" y="265.695" width="9.146" height="8.931"/>
	<rect x="137.096" y="274.626" width="9.145" height="8.931"/>
	<rect x="246.838" y="310.349" width="9.146" height="8.932"/>
	<rect x="246.838" y="319.28" width="9.146" height="8.93"/>
	<rect x="237.692" y="319.28" width="9.146" height="8.93"/>
	<rect x="228.548" y="310.349" width="9.146" height="8.932"/>
	<rect x="228.548" y="319.28" width="9.146" height="8.93"/>
	<rect x="219.402" y="310.349" width="9.146" height="8.932"/>
	<rect x="210.256" y="319.28" width="9.146" height="8.93"/>
	<rect x="201.111" y="319.28" width="9.145" height="8.93"/>
	<rect x="201.111" y="310.349" width="9.145" height="8.932"/>
	<rect x="210.256" y="301.419" width="9.146" height="8.93"/>
	<rect x="191.967" y="319.28" width="9.145" height="8.93"/>
	<rect x="196.54" y="217.051" width="9.145" height="8.931"/>
	<rect x="187.395" y="208.119" width="9.145" height="8.933"/>
	<rect x="196.54" y="208.119" width="9.145" height="8.933"/>
	<rect x="178.25" y="217.051" width="9.146" height="8.931"/>
	<rect x="169.104" y="208.119" width="9.146" height="8.933"/>
</g>
<g id="Layer_1_3_">
	<rect x="365.68" y="287.714" width="39.424" height="39.945"/>
	<rect x="374.557" y="296.591" fill="#FFFFFF" width="21.67" height="22.191"/>
	<rect x="380.961" y="303.149" width="8.863" height="9.075"/>
	<rect x="284.9" y="217.292" width="39.426" height="39.945"/>
	<rect x="293.777" y="226.168" fill="#FFFFFF" width="21.672" height="22.192"/>
	<rect x="300.182" y="232.727" width="8.861" height="9.075"/>
	<rect x="339.088" y="318.583" width="8.863" height="9.076"/>
	<rect x="339.088" y="309.508" width="8.863" height="9.075"/>
	<rect x="347.951" y="309.508" width="8.863" height="9.075"/>
	<rect x="347.951" y="300.433" width="8.863" height="9.076"/>
	<rect x="339.088" y="300.433" width="8.863" height="9.076"/>
	<rect x="339.088" y="291.356" width="8.863" height="9.076"/>
	<rect x="312.5" y="318.583" width="8.865" height="9.076"/>
	<rect x="312.5" y="309.508" width="8.865" height="9.075"/>
	<rect x="321.363" y="309.508" width="8.863" height="9.075"/>
	<rect x="330.227" y="309.508" width="8.861" height="9.075"/>
	<rect x="330.227" y="318.583" width="8.861" height="9.076"/>
	<rect x="312.5" y="291.356" width="8.865" height="9.076"/>
	<rect x="330.227" y="291.356" width="8.861" height="9.076"/>
	<rect x="339.088" y="282.28" width="8.863" height="9.076"/>
	<rect x="347.951" y="273.205" width="8.863" height="9.075"/>
	<rect x="356.814" y="273.205" width="8.865" height="9.075"/>
	<rect x="347.951" y="264.13" width="8.863" height="9.075"/>
	<rect x="339.088" y="264.13" width="8.863" height="9.075"/>
	<rect x="356.814" y="264.13" width="8.865" height="9.075"/>
	<rect x="312.5" y="282.28" width="8.865" height="9.076"/>
	<rect x="312.5" y="273.205" width="8.865" height="9.075"/>
	<rect x="321.363" y="273.205" width="8.863" height="9.075"/>
	<rect x="330.227" y="273.205" width="8.861" height="9.075"/>
	<rect x="330.227" y="282.28" width="8.861" height="9.076"/>
	<rect x="312.5" y="264.13" width="8.865" height="9.075"/>
	<rect x="330.227" y="264.13" width="8.861" height="9.075"/>
	<rect x="356.814" y="245.979" width="8.865" height="9.075"/>
	<rect x="365.68" y="245.979" width="8.861" height="9.075"/>
	<rect x="374.541" y="245.979" width="8.863" height="9.075"/>
	<rect x="374.541" y="255.053" width="8.863" height="9.076"/>
	<rect x="356.814" y="227.828" width="8.865" height="9.075"/>
	<rect x="374.541" y="227.828" width="8.863" height="9.075"/>
	<rect x="339.088" y="245.979" width="8.863" height="9.075"/>
	<rect x="339.088" y="236.903" width="8.863" height="9.074"/>
	<rect x="339.088" y="227.828" width="8.863" height="9.075"/>
	<rect x="347.951" y="227.828" width="8.863" height="9.075"/>
	<rect x="365.68" y="218.751" width="8.861" height="9.076"/>
	<rect x="356.814" y="218.751" width="8.865" height="9.076"/>
	<rect x="365.68" y="209.677" width="8.861" height="9.074"/>
	<rect x="374.541" y="209.677" width="8.863" height="9.074"/>
	<rect x="339.088" y="218.751" width="8.863" height="9.076"/>
	<rect x="330.227" y="209.677" width="8.861" height="9.074"/>
	<rect x="294.775" y="318.583" width="8.863" height="9.076"/>
	<rect x="285.912" y="318.583" width="8.863" height="9.076"/>
	<rect x="285.912" y="309.508" width="8.863" height="9.075"/>
	<rect x="294.775" y="300.433" width="8.863" height="9.076"/>
	<rect x="285.912" y="300.433" width="8.863" height="9.076"/>
	<rect x="294.775" y="291.356" width="8.863" height="9.076"/>
	<rect x="285.912" y="282.28" width="8.863" height="9.076"/>
	<rect x="285.912" y="273.205" width="8.863" height="9.075"/>
	<rect x="294.775" y="273.205" width="8.863" height="9.075"/>
	<rect x="303.637" y="282.28" width="8.863" height="9.076"/>
	<rect x="285.912" y="264.13" width="8.863" height="9.075"/>
	<rect x="387.363" y="268.667" width="8.863" height="9.075"/>
	<rect x="396.227" y="259.593" width="8.863" height="9.074"/>
	<rect x="396.227" y="268.667" width="8.863" height="9.075"/>
	<rect x="387.363" y="250.518" width="8.863" height="9.076"/>
	<rect x="396.227" y="241.44" width="8.863" height="9.077"/>
</g>
</svg>
