<?xml version="1.0" encoding="utf-8"?>
<!-- Generator: Adobe Illustrator 15.1.0, SVG Export Plug-In . SVG Version: 6.00 Build 0)  -->
<!DOCTYPE svg PUBLIC "-//W3C//DTD SVG 1.1//EN" "http://www.w3.org/Graphics/SVG/1.1/DTD/svg11.dtd">
<svg version="1.1" xmlns="http://www.w3.org/2000/svg" xmlns:xlink="http://www.w3.org/1999/xlink" x="0px" y="0px" width="500px"
	 height="500px" viewBox="0 0 500 500" enable-background="new 0 0 500 500" xml:space="preserve">
<g id="Layer_4" display="none">
	<g display="inline">
		<path fill="#FFFFFF" d="M300.944,481.585c-1.978,1.912-5.845,3.415-8.595,3.415H64c-2.75,0-5-2.129-5-4.879v-425
			C59,52.371,61.25,50,64,50h345c2.75,0,5,2.371,5,5.121v312.232c0,2.75-1.617,6.533-3.595,8.445L300.944,481.585z"/>
		<path fill="none" stroke="#000000" stroke-width="5" stroke-miterlimit="10" d="M300.944,481.835
			c-1.978,1.912-5.845,3.665-8.595,3.665H64c-2.75,0-5.5-2.629-5.5-5.379v-425c0-2.75,2.75-4.621,5.5-4.621h345
			c2.75,0,4.5,1.871,4.5,4.621v312.232c0,2.75-1.367,6.658-3.345,8.57L300.944,481.835z"/>
	</g>
</g>
<g id="Layer_3" display="none">
	<g display="inline">
		<path fill="#FFFFFF" d="M317.944,467.585c-1.978,1.912-5.845,3.415-8.595,3.415H81c-2.75,0-5-2.129-5-4.879v-425
			C76,38.371,78.25,36,81,36h345c2.75,0,5,2.371,5,5.121v312.232c0,2.75-1.617,6.533-3.595,8.445L317.944,467.585z"/>
		<path fill="none" stroke="#000000" stroke-width="5" stroke-miterlimit="10" d="M317.944,467.835
			c-1.978,1.912-5.845,3.665-8.595,3.665H81c-2.75,0-5.5-2.629-5.5-5.379v-425c0-2.75,2.75-4.621,5.5-4.621h345
			c2.75,0,4.5,1.871,4.5,4.621v312.232c0,2.75-1.367,6.658-3.345,8.57L317.944,467.835z"/>
	</g>
</g>
<g id="Layer_2">
	<g>
		<path fill="#FFFFFF" d="M334.944,453.585c-1.978,1.912-5.845,3.415-8.595,3.415H98c-2.75,0-5-2.129-5-4.879v-425
			C93,24.371,95.25,22,98,22h345c2.75,0,5,2.371,5,5.121v312.232c0,2.75-1.617,6.533-3.595,8.445L334.944,453.585z"/>
		<path fill="none" stroke="#000000" stroke-width="5" stroke-miterlimit="10" d="M334.944,453.835
			c-1.978,1.912-5.845,3.665-8.595,3.665H98c-2.75,0-5.5-2.629-5.5-5.379v-425c0-2.75,2.75-4.621,5.5-4.621h345
			c2.75,0,4.5,1.871,4.5,4.621v312.232c0,2.75-1.367,6.658-3.345,8.57L334.944,453.835z"/>
	</g>
	<g>
		<path fill="none" stroke="#000000" stroke-width="5" stroke-miterlimit="10" d="M329.5,455v-99.5c0-5.5,4.5-10,10-10H447"/>
	</g>
</g>
<g id="Layer_1">
	<rect x="149.21" y="75.928" stroke="#000000" stroke-miterlimit="10" width="79.578" height="80.628"/>
	<rect x="167.127" y="93.845" fill="#FFFFFF" stroke="#000000" stroke-miterlimit="10" width="43.742" height="44.793"/>
	<rect x="180.054" y="107.081" stroke="#000000" stroke-miterlimit="10" width="17.89" height="18.319"/>
	<rect x="312.212" y="233.443" stroke="#000000" stroke-miterlimit="10" width="79.579" height="80.629"/>
	<rect x="330.13" y="251.359" fill="#FFFFFF" stroke="#000000" stroke-miterlimit="10" width="43.744" height="44.795"/>
	<rect x="343.059" y="264.598" stroke="#000000" stroke-miterlimit="10" width="17.888" height="18.318"/>
	<rect x="264.532" y="75.928" stroke="#000000" stroke-miterlimit="10" width="17.89" height="18.319"/>
	<rect x="264.532" y="94.247" stroke="#000000" stroke-miterlimit="10" width="17.89" height="18.319"/>
	<rect x="246.643" y="94.247" stroke="#000000" stroke-miterlimit="10" width="17.89" height="18.319"/>
	<rect x="246.643" y="112.564" stroke="#000000" stroke-miterlimit="10" width="17.89" height="18.32"/>
	<rect x="264.532" y="112.564" stroke="#000000" stroke-miterlimit="10" width="17.89" height="18.32"/>
	<rect x="264.532" y="130.885" stroke="#000000" stroke-miterlimit="10" width="17.89" height="18.318"/>
	<rect x="318.198" y="75.928" stroke="#000000" stroke-miterlimit="10" width="17.89" height="18.319"/>
	<rect x="318.198" y="94.247" stroke="#000000" stroke-miterlimit="10" width="17.89" height="18.319"/>
	<rect x="300.311" y="94.247" stroke="#000000" stroke-miterlimit="10" width="17.89" height="18.319"/>
	<rect x="282.422" y="94.247" stroke="#000000" stroke-miterlimit="10" width="17.889" height="18.319"/>
	<rect x="282.422" y="75.928" stroke="#000000" stroke-miterlimit="10" width="17.889" height="18.319"/>
	<rect x="318.198" y="130.885" stroke="#000000" stroke-miterlimit="10" width="17.89" height="18.318"/>
	<rect x="282.422" y="130.885" stroke="#000000" stroke-miterlimit="10" width="17.889" height="18.318"/>
	<rect x="264.532" y="149.203" stroke="#000000" stroke-miterlimit="10" width="17.89" height="18.321"/>
	<rect x="246.643" y="167.523" stroke="#000000" stroke-miterlimit="10" width="17.89" height="18.318"/>
	<rect x="228.753" y="167.523" stroke="#000000" stroke-miterlimit="10" width="17.89" height="18.318"/>
	<rect x="246.643" y="185.841" stroke="#000000" stroke-miterlimit="10" width="17.89" height="18.319"/>
	<rect x="264.532" y="185.841" stroke="#000000" stroke-miterlimit="10" width="17.89" height="18.319"/>
	<rect x="228.753" y="185.841" stroke="#000000" stroke-miterlimit="10" width="17.89" height="18.319"/>
	<rect x="318.198" y="149.203" stroke="#000000" stroke-miterlimit="10" width="17.89" height="18.321"/>
	<rect x="318.198" y="167.523" stroke="#000000" stroke-miterlimit="10" width="17.89" height="18.318"/>
	<rect x="300.311" y="167.523" stroke="#000000" stroke-miterlimit="10" width="17.89" height="18.318"/>
	<rect x="282.422" y="167.523" stroke="#000000" stroke-miterlimit="10" width="17.889" height="18.318"/>
	<rect x="282.422" y="149.203" stroke="#000000" stroke-miterlimit="10" width="17.889" height="18.321"/>
	<rect x="318.198" y="185.841" stroke="#000000" stroke-miterlimit="10" width="17.89" height="18.319"/>
	<rect x="282.422" y="185.841" stroke="#000000" stroke-miterlimit="10" width="17.889" height="18.319"/>
	<rect x="221.334" y="222.479" stroke="#000000" stroke-miterlimit="10" width="17.89" height="18.318"/>
	<rect x="203.444" y="222.479" stroke="#000000" stroke-miterlimit="10" width="17.89" height="18.318"/>
	<rect x="185.556" y="222.479" stroke="#000000" stroke-miterlimit="10" width="17.889" height="18.318"/>
	<rect x="185.556" y="204.161" stroke="#000000" stroke-miterlimit="10" width="17.889" height="18.318"/>
	<rect x="221.334" y="259.115" stroke="#000000" stroke-miterlimit="10" width="17.89" height="18.318"/>
	<rect x="185.556" y="259.115" stroke="#000000" stroke-miterlimit="10" width="17.889" height="18.318"/>
	<rect x="257.113" y="222.479" stroke="#000000" stroke-miterlimit="10" width="17.89" height="18.318"/>
	<rect x="257.113" y="240.797" stroke="#000000" stroke-miterlimit="10" width="17.89" height="18.318"/>
	<rect x="257.113" y="259.115" stroke="#000000" stroke-miterlimit="10" width="17.89" height="18.318"/>
	<rect x="239.224" y="259.115" stroke="#000000" stroke-miterlimit="10" width="17.89" height="18.318"/>
	<rect x="203.444" y="277.434" stroke="#000000" stroke-miterlimit="10" width="17.89" height="18.32"/>
	<rect x="221.334" y="277.434" stroke="#000000" stroke-miterlimit="10" width="17.89" height="18.32"/>
	<rect x="203.444" y="295.754" stroke="#000000" stroke-miterlimit="10" width="17.89" height="18.318"/>
	<rect x="185.556" y="295.754" stroke="#000000" stroke-miterlimit="10" width="17.889" height="18.318"/>
	<rect x="257.113" y="277.434" stroke="#000000" stroke-miterlimit="10" width="17.89" height="18.32"/>
	<rect x="275.003" y="295.734" stroke="#000000" stroke-miterlimit="10" width="17.889" height="18.318"/>
	<rect x="353.979" y="75.928" stroke="#000000" stroke-miterlimit="10" width="17.89" height="18.319"/>
	<rect x="371.868" y="75.928" stroke="#000000" stroke-miterlimit="10" width="17.889" height="18.319"/>
	<rect x="371.868" y="94.247" stroke="#000000" stroke-miterlimit="10" width="17.889" height="18.319"/>
	<rect x="353.979" y="112.564" stroke="#000000" stroke-miterlimit="10" width="17.89" height="18.32"/>
	<rect x="371.868" y="112.564" stroke="#000000" stroke-miterlimit="10" width="17.889" height="18.32"/>
	<rect x="353.979" y="130.885" stroke="#000000" stroke-miterlimit="10" width="17.89" height="18.318"/>
	<rect x="371.868" y="149.203" stroke="#000000" stroke-miterlimit="10" width="17.889" height="18.321"/>
	<rect x="371.868" y="167.523" stroke="#000000" stroke-miterlimit="10" width="17.889" height="18.318"/>
	<rect x="353.979" y="167.523" stroke="#000000" stroke-miterlimit="10" width="17.89" height="18.318"/>
	<rect x="336.09" y="149.203" stroke="#000000" stroke-miterlimit="10" width="17.89" height="18.321"/>
	<rect x="371.868" y="185.841" stroke="#000000" stroke-miterlimit="10" width="17.889" height="18.319"/>
	<rect x="167.127" y="176.682" stroke="#000000" stroke-miterlimit="10" width="17.89" height="18.317"/>
	<rect x="149.238" y="194.999" stroke="#000000" stroke-miterlimit="10" width="17.891" height="18.318"/>
	<rect x="149.238" y="176.682" stroke="#000000" stroke-miterlimit="10" width="17.891" height="18.317"/>
	<rect x="167.127" y="213.316" stroke="#000000" stroke-miterlimit="10" width="17.89" height="18.318"/>
	<rect x="149.238" y="231.635" stroke="#000000" stroke-miterlimit="10" width="17.891" height="18.32"/>
</g>
</svg>
