<?xml version="1.0" encoding="utf-8"?>
<!-- Generator: Adobe Illustrator 15.1.0, SVG Export Plug-In . SVG Version: 6.00 Build 0)  -->
<!DOCTYPE svg PUBLIC "-//W3C//DTD SVG 1.1//EN" "http://www.w3.org/Graphics/SVG/1.1/DTD/svg11.dtd">
<svg version="1.1" xmlns="http://www.w3.org/2000/svg" xmlns:xlink="http://www.w3.org/1999/xlink" x="0px" y="0px" width="500px"
	 height="500px" viewBox="0 0 500 500" enable-background="new 0 0 500 500" xml:space="preserve">
<g id="Layer_2_1_">
</g>
<g id="Layer_1">
	<g id="Layer_2">
		<circle fill="none" stroke="#58595B" stroke-width="10" stroke-miterlimit="10" cx="250" cy="250" r="234.883"/>
	</g>
	<g>
		<path fill="#468DCB" d="M417.076,306.164c0,27.5-22.5,50-50,50H132.924c-27.5,0-50-22.5-50-50V197.318c0-27.5,22.5-50,50-50
			h234.152c27.5,0,50,22.5,50,50V306.164z"/>
		<rect x="82.924" y="147.318" fill="none" width="334.152" height="208.846"/>
	</g>
	<g>
		<path fill="#468DCB" d="M374.89,215.557c0,8.25-6.75,15-15,15H140.11c-8.25,0-15-6.75-15-15V95.208c0-8.25,6.75-15,15-15h219.78
			c8.25,0,15,6.75,15,15V215.557z"/>
		<path fill="none" stroke="#FFFFFF" stroke-width="10" stroke-miterlimit="10" d="M374.89,215.557c0,8.25-6.75,15-15,15H140.11
			c-8.25,0-15-6.75-15-15V95.208c0-8.25,6.75-15,15-15h219.78c8.25,0,15,6.75,15,15V215.557z"/>
	</g>
	<g>
		<path fill="#468DCB" d="M374.89,402.722c0,8.25-6.75,15-15,15H140.11c-8.25,0-15-6.75-15-15V293.943c0-8.25,6.75-15,15-15h219.78
			c8.25,0,15,6.75,15,15V402.722z"/>
		<path fill="none" stroke="#FFFFFF" stroke-width="10" stroke-miterlimit="10" d="M374.89,402.722c0,8.25-6.75,15-15,15H140.11
			c-8.25,0-15-6.75-15-15V293.943c0-8.25,6.75-15,15-15h219.78c8.25,0,15,6.75,15,15V402.722z"/>
	</g>
	<g>
		<path fill="#468DCB" d="M343.849,313.117c0,1.799-2.25,3.271-5,3.271H161.152c-2.75,0-5-1.473-5-3.271s2.25-3.271,5-3.271h177.697
			C341.599,309.848,343.849,311.318,343.849,313.117z"/>
		<path fill="none" stroke="#FFFFFF" stroke-width="5" stroke-miterlimit="10" d="M343.849,313.117c0,1.799-2.25,3.271-5,3.271
			H161.152c-2.75,0-5-1.473-5-3.271s2.25-3.271,5-3.271h177.697C341.599,309.848,343.849,311.318,343.849,313.117z"/>
	</g>
	<g>
		<path fill="#468DCB" d="M343.849,337.463c0,1.801-2.25,3.271-5,3.271H161.152c-2.75,0-5-1.473-5-3.271s2.25-3.271,5-3.271h177.697
			C341.599,334.191,343.849,335.664,343.849,337.463z"/>
		<path fill="none" stroke="#FFFFFF" stroke-width="5" stroke-miterlimit="10" d="M343.849,337.463c0,1.801-2.25,3.271-5,3.271
			H161.152c-2.75,0-5-1.473-5-3.271s2.25-3.271,5-3.271h177.697C341.599,334.191,343.849,335.664,343.849,337.463z"/>
	</g>
	<g>
		<path fill="#468DCB" d="M343.849,361.809c0,1.801-2.25,3.271-5,3.271H161.152c-2.75,0-5-1.473-5-3.271s2.25-3.271,5-3.271h177.697
			C341.599,358.538,343.849,360.01,343.849,361.809z"/>
		<path fill="none" stroke="#FFFFFF" stroke-width="5" stroke-miterlimit="10" d="M343.849,361.809c0,1.801-2.25,3.271-5,3.271
			H161.152c-2.75,0-5-1.473-5-3.271s2.25-3.271,5-3.271h177.697C341.599,358.538,343.849,360.01,343.849,361.809z"/>
	</g>
	<g>
		<path fill="#468DCB" d="M343.849,386.156c0,1.799-2.25,3.271-5,3.271H161.152c-2.75,0-5-1.472-5-3.271s2.25-3.271,5-3.271h177.697
			C341.599,382.886,343.849,384.357,343.849,386.156z"/>
		<path fill="none" stroke="#FFFFFF" stroke-width="5" stroke-miterlimit="10" d="M343.849,386.156c0,1.799-2.25,3.271-5,3.271
			H161.152c-2.75,0-5-1.472-5-3.271s2.25-3.271,5-3.271h177.697C341.599,382.886,343.849,384.357,343.849,386.156z"/>
	</g>
	<circle fill="#468DCB" stroke="#FFFFFF" stroke-width="5" stroke-miterlimit="10" cx="398.653" cy="199.763" r="4.7"/>
</g>
</svg>
