<?xml version="1.0" encoding="utf-8"?>
<!-- Generator: Adobe Illustrator 15.1.0, SVG Export Plug-In . SVG Version: 6.00 Build 0)  -->
<!DOCTYPE svg PUBLIC "-//W3C//DTD SVG 1.1//EN" "http://www.w3.org/Graphics/SVG/1.1/DTD/svg11.dtd">
<svg version="1.1" id="Layer_1" xmlns="http://www.w3.org/2000/svg" xmlns:xlink="http://www.w3.org/1999/xlink" x="0px" y="0px"
	 width="500px" height="500px" viewBox="0 0 500 500" enable-background="new 0 0 500 500" xml:space="preserve">
<g id="Layer_4">
	<circle fill="none" stroke="#58595B" stroke-width="10" stroke-miterlimit="10" cx="250" cy="250" r="234.883"/>
</g>
<g id="PC">
	<g>
		<path fill="#468DCB" d="M385.934,103.397c0.007,0.004,0.012,0.007,0.016,0.007c0.001,0,0.003-0.001,0.003-0.007l0.008,141.809
			c-0.005,0.01-0.021,0.028-0.008,0.029l-271.873,0.008c-0.008-0.004-0.021-0.015-0.026-0.015c-0.002,0-0.003,0.001-0.003,0.007
			l-0.008-141.809c0.005-0.01,0.022-0.027,0.008-0.029H385.934 M385.951,93.397H114.049c-5.5,0-10,4.5-10,10v141.838
			c0,5.5,4.5,10,10,10h271.902c5.5,0,10-4.5,10-10V103.397C395.951,97.897,391.451,93.397,385.951,93.397L385.951,93.397z"/>
	</g>
	<g>
		<path fill="#468DCB" d="M433.629,365.102c1.931,5.149-0.989,9.363-6.489,9.363H72.86c-5.5,0-8.42-4.214-6.489-9.363l34.167-91.119
			c1.931-5.149,8.011-9.363,13.511-9.363H385.95c5.5,0,11.58,4.214,13.511,9.363L433.629,365.102z"/>
	</g>
	<g>
		<path fill="#468DCB" d="M237.022,233.047c-2.813,0-5.55-1.035-7.724-2.945l-46.119-40.487c-5.095-4.474-5.768-12.431-1.501-17.774
			c4.265-5.343,11.854-6.048,16.949-1.574l36.892,32.389l64.352-80.595c4.266-5.342,11.854-6.048,16.948-1.574
			c5.098,4.473,5.77,12.431,1.503,17.773l-72.073,90.27c-2.051,2.566-4.987,4.172-8.166,4.468
			C237.729,233.03,237.375,233.047,237.022,233.047z"/>
	</g>
</g>
<g id="Mouse" display="none">
	<path display="inline" fill="none" stroke="#2E3192" stroke-width="3" stroke-miterlimit="10" d="M366.015,212.681
		c0,0,58.923,26.014,57.542,40.201c-1.38,14.188-51.432,16.753-43.353,27.589s61.088,4.729,68.626,17.955
		c3.251,6.872-4.73,15.026-4.73,15.026"/>
	<path display="inline" fill="none" stroke="#2E3192" stroke-width="3" stroke-miterlimit="10" d="M470.658,336.591
		c7.134,16.259,20.336,26.181-3.418,36.604c-23.755,10.424-22.117-6.01-29.254-22.268c-7.138-16.262-5.604-32.648,3.418-36.607
		C450.425,310.357,463.521,320.33,470.658,336.591z"/>
	<g display="inline">
		<path fill="#2E3192" d="M445.757,323.629c0.001,0,0.217-0.093,0.561-0.102c0.17-0.002,0.379,0,0.596,0.054
			c0.224,0.041,0.464,0.116,0.704,0.235c0.243,0.115,0.489,0.272,0.7,0.494c0.197,0.236,0.345,0.553,0.459,0.892
			c0.128,0.327,0.267,0.634,0.488,0.875c0.227,0.239,0.482,0.462,0.805,0.655c0.307,0.203,0.604,0.433,0.831,0.703
			c0.213,0.276,0.409,0.563,0.595,0.844c0.334,0.582,0.457,1.209,0.455,1.748c0.021,0.539-0.1,0.998-0.206,1.313
			c-0.11,0.315-0.21,0.494-0.21,0.494c-0.034,0.062-0.11,0.082-0.172,0.049c-0.007-0.005-0.015-0.01-0.021-0.015l-0.005-0.006
			c0,0-0.161-0.141-0.378-0.381c-0.224-0.237-0.451-0.586-0.729-0.976c-0.136-0.194-0.23-0.42-0.361-0.642
			c-0.127-0.223-0.212-0.473-0.281-0.742c-0.085-0.262-0.155-0.545-0.236-0.834c-0.11-0.27-0.12-0.614-0.187-0.941
			c-0.066-0.324-0.157-0.654-0.364-0.885c-0.179-0.255-0.464-0.412-0.772-0.507c-0.3-0.109-0.619-0.154-0.831-0.294
			c-0.231-0.115-0.387-0.305-0.553-0.452c-0.311-0.326-0.546-0.656-0.708-0.927c-0.163-0.264-0.252-0.471-0.251-0.471
			C445.652,323.744,445.688,323.66,445.757,323.629z"/>
	</g>
</g>
<g id="Check">
</g>
</svg>
