<?xml version="1.0" encoding="utf-8"?>
<!-- Generator: Adobe Illustrator 16.0.0, SVG Export Plug-In . SVG Version: 6.00 Build 0)  -->
<!DOCTYPE svg PUBLIC "-//W3C//DTD SVG 1.1//EN" "http://www.w3.org/Graphics/SVG/1.1/DTD/svg11.dtd">
<svg version="1.1" xmlns="http://www.w3.org/2000/svg" xmlns:xlink="http://www.w3.org/1999/xlink" x="0px" y="0px" width="500px"
	 height="500px" viewBox="0 0 500 500" enable-background="new 0 0 500 500" xml:space="preserve">
<g id="Layer_4">
	<circle fill="none" stroke="#58595B" stroke-width="10" stroke-miterlimit="10" cx="247.175" cy="250" r="234.883"/>
</g>
<g id="Phone">
	<g>
		<path fill="#468DCB" d="M332.068,391.552c0,13.75-11.25,25-25,25H165.413c-13.75,0-25-11.25-25-25V93.199c0-13.75,11.25-25,25-25
			h141.655c13.75,0,25,11.25,25,25V391.552z"/>
		<path fill="none" stroke="#FFFFFF" stroke-miterlimit="10" d="M332.068,391.552c0,13.75-11.25,25-25,25H165.413
			c-13.75,0-25-11.25-25-25V93.199c0-13.75,11.25-25,25-25h141.655c13.75,0,25,11.25,25,25V391.552z"/>
	</g>
	
		<rect x="205.844" y="88.005" fill="none" stroke="#FFFFFF" stroke-width="5" stroke-linecap="round" stroke-linejoin="round" stroke-miterlimit="10" width="60.792" height="1.279"/>
	<path fill="#FFFFFF" d="M250.017,389.348c0,7.605-6.167,13.776-13.776,13.776c-7.608,0-13.777-6.171-13.777-13.776
		c0-7.609,6.169-13.777,13.777-13.777C243.849,375.57,250.017,381.738,250.017,389.348z"/>
</g>
<g id="QR">
	<g>
		<path fill="#FFFFFF" d="M322.308,362.635c0,2.2-1.8,4-4,4H154.175c-2.2,0-4-1.8-4-4V113.873c0-2.2,1.8-4,4-4h164.133
			c2.2,0,4,1.8,4,4V362.635z"/>
	</g>
	<rect x="157.832" y="127.872" fill="#468DCB" width="51.572" height="52.253"/>
	<rect x="169.443" y="139.483" fill="#FFFFFF" width="28.348" height="29.03"/>
	<rect x="177.82" y="148.062" fill="#468DCB" width="11.594" height="11.872"/>
	<rect x="263.496" y="219.992" fill="#468DCB" width="51.574" height="52.252"/>
	<rect x="275.11" y="231.603" fill="#FFFFFF" width="28.347" height="29.031"/>
	<rect x="283.487" y="240.182" fill="#468DCB" width="11.595" height="11.872"/>
	<rect x="232.589" y="127.872" fill="#468DCB" stroke="#468DCB" stroke-miterlimit="10" width="11.595" height="11.873"/>
	<rect x="232.589" y="139.744" fill="#468DCB" stroke="#468DCB" stroke-miterlimit="10" width="11.595" height="11.872"/>
	<rect x="220.997" y="139.744" fill="#468DCB" stroke="#468DCB" stroke-miterlimit="10" width="11.593" height="11.872"/>
	<rect x="220.997" y="151.616" fill="#468DCB" stroke="#468DCB" stroke-miterlimit="10" width="11.593" height="11.872"/>
	<rect x="232.589" y="151.616" fill="#468DCB" stroke="#468DCB" stroke-miterlimit="10" width="11.595" height="11.872"/>
	<rect x="232.589" y="163.488" fill="#468DCB" stroke="#468DCB" stroke-miterlimit="10" width="11.595" height="11.872"/>
	<rect x="267.369" y="127.872" fill="#468DCB" stroke="#468DCB" stroke-miterlimit="10" width="11.597" height="11.873"/>
	<rect x="267.369" y="139.744" fill="#468DCB" stroke="#468DCB" stroke-miterlimit="10" width="11.597" height="11.872"/>
	<rect x="255.778" y="139.744" fill="#468DCB" stroke="#468DCB" stroke-miterlimit="10" width="11.591" height="11.872"/>
	<rect x="244.185" y="139.744" fill="#468DCB" stroke="#468DCB" stroke-miterlimit="10" width="11.594" height="11.872"/>
	<rect x="244.185" y="127.872" fill="#468DCB" stroke="#468DCB" stroke-miterlimit="10" width="11.594" height="11.873"/>
	<rect x="267.369" y="163.488" fill="#468DCB" stroke="#468DCB" stroke-miterlimit="10" width="11.597" height="11.872"/>
	<rect x="244.185" y="163.488" fill="#468DCB" stroke="#468DCB" stroke-miterlimit="10" width="11.594" height="11.872"/>
	<rect x="232.589" y="175.359" fill="#468DCB" stroke="#468DCB" stroke-miterlimit="10" width="11.595" height="11.873"/>
	<rect x="220.997" y="187.232" fill="#468DCB" stroke="#468DCB" stroke-miterlimit="10" width="11.593" height="11.871"/>
	<rect x="209.403" y="187.232" fill="#468DCB" stroke="#468DCB" stroke-miterlimit="10" width="11.593" height="11.871"/>
	<rect x="220.997" y="199.104" fill="#468DCB" stroke="#468DCB" stroke-miterlimit="10" width="11.593" height="11.873"/>
	<rect x="232.589" y="199.104" fill="#468DCB" stroke="#468DCB" stroke-miterlimit="10" width="11.595" height="11.873"/>
	<rect x="209.403" y="199.104" fill="#468DCB" stroke="#468DCB" stroke-miterlimit="10" width="11.593" height="11.873"/>
	<rect x="267.369" y="175.359" fill="#468DCB" stroke="#468DCB" stroke-miterlimit="10" width="11.597" height="11.873"/>
	<rect x="267.369" y="187.232" fill="#468DCB" stroke="#468DCB" stroke-miterlimit="10" width="11.597" height="11.871"/>
	<rect x="255.778" y="187.232" fill="#468DCB" stroke="#468DCB" stroke-miterlimit="10" width="11.591" height="11.871"/>
	<rect x="244.185" y="187.232" fill="#468DCB" stroke="#468DCB" stroke-miterlimit="10" width="11.594" height="11.871"/>
	<rect x="244.185" y="175.359" fill="#468DCB" stroke="#468DCB" stroke-miterlimit="10" width="11.594" height="11.873"/>
	<rect x="267.369" y="199.104" fill="#468DCB" stroke="#468DCB" stroke-miterlimit="10" width="11.597" height="11.873"/>
	<rect x="244.185" y="199.104" fill="#468DCB" stroke="#468DCB" stroke-miterlimit="10" width="11.594" height="11.873"/>
	<rect x="209.403" y="222.849" fill="#468DCB" stroke="#468DCB" stroke-miterlimit="10" width="11.593" height="11.871"/>
	<rect x="197.81" y="222.849" fill="#468DCB" stroke="#468DCB" stroke-miterlimit="10" width="11.594" height="11.871"/>
	<rect x="186.216" y="222.849" fill="#468DCB" stroke="#468DCB" stroke-miterlimit="10" width="11.594" height="11.871"/>
	<rect x="186.216" y="210.976" fill="#468DCB" stroke="#468DCB" stroke-miterlimit="10" width="11.594" height="11.873"/>
	<rect x="209.403" y="246.591" fill="#468DCB" stroke="#468DCB" stroke-miterlimit="10" width="11.593" height="11.872"/>
	<rect x="186.216" y="246.591" fill="#468DCB" stroke="#468DCB" stroke-miterlimit="10" width="11.594" height="11.872"/>
	<rect x="232.589" y="222.849" fill="#468DCB" stroke="#468DCB" stroke-miterlimit="10" width="11.595" height="11.871"/>
	<rect x="232.589" y="234.72" fill="#468DCB" stroke="#468DCB" stroke-miterlimit="10" width="11.595" height="11.871"/>
	<rect x="232.589" y="246.591" fill="#468DCB" stroke="#468DCB" stroke-miterlimit="10" width="11.595" height="11.872"/>
	<rect x="220.997" y="246.591" fill="#468DCB" stroke="#468DCB" stroke-miterlimit="10" width="11.593" height="11.872"/>
	<rect x="197.81" y="258.463" fill="#468DCB" stroke="#468DCB" stroke-miterlimit="10" width="11.594" height="11.874"/>
	<rect x="209.403" y="258.463" fill="#468DCB" stroke="#468DCB" stroke-miterlimit="10" width="11.593" height="11.874"/>
	<rect x="197.81" y="270.337" fill="#468DCB" stroke="#468DCB" stroke-miterlimit="10" width="11.594" height="11.871"/>
	<rect x="186.216" y="270.337" fill="#468DCB" stroke="#468DCB" stroke-miterlimit="10" width="11.594" height="11.871"/>
	<rect x="232.589" y="258.463" fill="#468DCB" stroke="#468DCB" stroke-miterlimit="10" width="11.595" height="11.874"/>
	<rect x="244.185" y="270.337" fill="#468DCB" stroke="#468DCB" stroke-miterlimit="10" width="11.594" height="11.871"/>
	<rect x="290.559" y="127.872" fill="#468DCB" stroke="#468DCB" stroke-miterlimit="10" width="11.594" height="11.873"/>
	<rect x="302.152" y="127.872" fill="#468DCB" stroke="#468DCB" stroke-miterlimit="10" width="11.594" height="11.873"/>
	<rect x="302.152" y="139.744" fill="#468DCB" stroke="#468DCB" stroke-miterlimit="10" width="11.594" height="11.872"/>
	<rect x="290.559" y="151.616" fill="#468DCB" stroke="#468DCB" stroke-miterlimit="10" width="11.594" height="11.872"/>
	<rect x="302.152" y="151.616" fill="#468DCB" stroke="#468DCB" stroke-miterlimit="10" width="11.594" height="11.872"/>
	<rect x="290.559" y="163.488" fill="#468DCB" stroke="#468DCB" stroke-miterlimit="10" width="11.594" height="11.872"/>
	<rect x="302.152" y="175.359" fill="#468DCB" stroke="#468DCB" stroke-miterlimit="10" width="11.594" height="11.873"/>
	<rect x="302.152" y="187.232" fill="#468DCB" stroke="#468DCB" stroke-miterlimit="10" width="11.594" height="11.871"/>
	<rect x="290.559" y="187.232" fill="#468DCB" stroke="#468DCB" stroke-miterlimit="10" width="11.594" height="11.871"/>
	<rect x="278.966" y="175.359" fill="#468DCB" stroke="#468DCB" stroke-miterlimit="10" width="11.593" height="11.873"/>
	<rect x="302.152" y="199.104" fill="#468DCB" stroke="#468DCB" stroke-miterlimit="10" width="11.594" height="11.873"/>
	<rect x="169.443" y="193.167" fill="#468DCB" stroke="#468DCB" stroke-miterlimit="10" width="11.593" height="11.871"/>
	<rect x="157.849" y="205.039" fill="#468DCB" stroke="#468DCB" stroke-miterlimit="10" width="11.594" height="11.872"/>
	<rect x="157.849" y="193.167" fill="#468DCB" stroke="#468DCB" stroke-miterlimit="10" width="11.594" height="11.871"/>
	<rect x="169.443" y="216.91" fill="#468DCB" stroke="#468DCB" stroke-miterlimit="10" width="11.593" height="11.872"/>
	<rect x="157.849" y="228.782" fill="#468DCB" stroke="#468DCB" stroke-miterlimit="10" width="11.594" height="11.873"/>
</g>
<g id="Hand_1_">
	<g>
		<path fill="#468DCB" d="M332.658,426.731c-6.967,0-11.792-0.539-14.751-1.646c-13.2-4.94-31.27-27.489-37.254-38.192
			c-6.841-12.238-13.598-50.545-14.731-57.175c-6.212-5.165-47.464-39.86-55.754-57.187c-5.909-12.352-2.505-21.317,0.049-25.563
			c2.821-4.687,7.328-8.065,10.961-8.215c0.137-0.005,0.272-0.008,0.407-0.008c5.176,0,8.84,3.714,17.693,12.687
			c2.264,2.295,4.83,4.896,7.879,7.905c7.081,6.986,31.61,29.782,49.965,29.782c0.002,0,0.002,0,0.003,0
			c1.132,0,2.229-0.09,3.261-0.267c14.753-2.529,33.219-25.309,36.128-53.953c1.687-16.637,0.846-35.894,0.17-51.366
			c-0.497-11.371-0.89-20.353-0.153-25.143l0.257-1.674l1.649-0.382c1.074-0.249,2.183-0.375,3.296-0.375
			c18.894,0,36.018,34.848,39.647,48.712c4.643,17.75,11.522,137.292,6.157,180.189l-0.029,0.232l-0.071,0.223
			c-3.751,11.663-27.599,37.994-28.611,39.109l-0.633,0.695l-0.934,0.106C356.723,425.289,343.987,426.731,332.658,426.731
			C332.659,426.731,332.659,426.731,332.658,426.731z"/>
		<path fill="#FFFFFF" d="M341.732,158.46c16.215,0,33.267,31.712,37.229,46.845c4.183,15.99,11.516,135.908,6.096,179.246
			c-3.629,11.282-28.082,38.193-28.082,38.193s-13,1.487-24.316,1.487c-5.657,0-10.895-0.372-13.875-1.487
			c-12.09-4.524-29.647-25.803-35.948-37.07c-7.211-12.901-14.603-57.288-14.603-57.288s-47.167-38.87-55.81-56.933
			c-8.642-18.063,3.467-29.979,8.858-30.201c0.102-0.004,0.204-0.006,0.305-0.006c5.243,0,9.387,5.631,23.816,19.872
			c13.673,13.491,35.154,30.503,51.725,30.503c1.257,0,2.488-0.098,3.683-0.303c16.738-2.869,35.261-27.299,38.192-56.165
			c2.927-28.867-1.674-65.487,0-76.382C339.908,158.56,340.817,158.46,341.732,158.46 M341.732,153.46
			c-1.303,0-2.602,0.148-3.86,0.44l-3.299,0.765l-0.515,3.347c-0.773,5.034-0.376,14.124,0.127,25.632
			c0.673,15.392,1.51,34.548-0.159,51.005c-2.796,27.529-20.195,49.364-34.063,51.741c-0.895,0.153-1.85,0.23-2.838,0.23
			c-11.747,0-29.77-10.864-48.213-29.062c-3.037-2.997-5.597-5.593-7.855-7.882c-9.099-9.222-13.251-13.431-19.473-13.431
			c-0.169,0-0.339,0.003-0.509,0.011c-4.496,0.185-9.72,3.972-13.001,9.423c-2.814,4.677-6.577,14.523-0.163,27.932
			c8.24,17.221,47.505,50.586,55.703,57.438c1.513,8.72,8.09,44.959,14.855,57.063c6.315,11.295,24.602,34.09,38.56,39.313
			c3.245,1.214,8.356,1.805,15.628,1.805c11.47,0,24.342-1.458,24.885-1.52l1.868-0.214l1.264-1.392
			c2.578-2.836,25.292-28.058,29.142-40.024l0.144-0.446l0.058-0.465c3.393-27.127,1.541-79.475,0.587-100.723
			c-1.707-38.042-4.57-71.859-6.807-80.408c-1.959-7.484-7.277-19.871-14.743-30.675C362.78,164.284,352.946,153.46,341.732,153.46
			L341.732,153.46z"/>
	</g>
</g>
</svg>
